<svg xmlns="http://www.w3.org/2000/svg" width="17" height="17" viewBox="0 0 17 17"><defs><clipPath id="9qyxa"><path fill="#fff" d="M0 17V0h17v17zm8-9H1v1h7v7h1V9h7V8H9V1H8z"/></clipPath><clipPath id="9qyxb"><path fill="#fff" d="M8 1h1v7h7v1H9v7H8V9H1V8h7z"/></clipPath></defs><g><g><path fill="#9173e6" d="M8 1h1v7h7v1H9v7H8V9H1V8h7z"/><path fill="none" stroke="#9173e6" stroke-linecap="round" stroke-linejoin="round" stroke-miterlimit="20" stroke-width="2" d="M8 1h1v7h7v1H9v7H8V9H1V8h7z" clip-path="url(&quot;#9qyxa&quot;)"/><path fill="none" stroke="#5e42b0" stroke-miterlimit="20" stroke-width="6" d="M8 1h1v7h7v1H9v7H8V9H1V8h7z" clip-path="url(&quot;#9qyxb&quot;)"/></g></g></svg>